<svg width="217" height="262" viewBox="0 0 217 262" fill="none" xmlns="http://www.w3.org/2000/svg">
<rect y="23" width="217" height="217" rx="25" fill="white"/>
<path d="M152.64 108.215C151.273 95.3683 146.763 85.3917 139.11 78.285C131.593 71.1783 121.89 67.625 110 67.625C100.297 67.625 91.4817 70.3583 83.555 75.825C75.6283 81.155 69.2733 88.74 64.49 98.58C59.8433 108.42 57.52 120.037 57.52 133.43C57.52 146.277 59.98 157.62 64.9 167.46C69.82 177.3 76.4483 184.953 84.785 190.42C93.1217 195.887 102.347 198.62 112.46 198.62C121.343 198.62 130.09 196.638 138.7 192.675C147.31 188.575 154.348 182.698 159.815 175.045L165.145 179.35C159.268 187.413 152.913 193.632 146.08 198.005C139.247 202.378 132.413 205.317 125.58 206.82C118.883 208.46 112.733 209.28 107.13 209.28C96.88 209.28 87.45 207.435 78.84 203.745C70.3667 200.055 62.9867 194.93 56.7 188.37C50.55 181.673 45.7667 173.952 42.35 165.205C39.07 156.322 37.43 146.755 37.43 136.505C37.43 126.802 38.865 117.372 41.735 108.215C44.7417 99.0583 49.1833 90.79 55.06 83.41C60.9367 76.03 68.3167 70.1533 77.2 65.78C86.22 61.4067 96.675 59.22 108.565 59.22C123.598 59.22 137.402 63.3883 149.975 71.725L148.95 60.655H160.02V108.215H152.64Z" fill="black"/>
</svg>
