<svg width="217" height="217" viewBox="0 0 217 217" fill="none" xmlns="http://www.w3.org/2000/svg">
<rect width="217" height="217" rx="25" fill="white"/>
<path d="M68.408 137H56.732V112.808H34.808V137H23.132V77.192H34.808V102.476H56.732V77.192H68.408V137ZM185.695 113.816H196.531C196.531 121.432 194.627 127.284 190.819 131.372C187.011 135.46 181.635 137.504 174.691 137.504C159.403 137.504 151.759 128.516 151.759 110.54V105.5C151.759 91.332 155.679 82.456 163.519 78.872C166.599 77.416 170.323 76.688 174.691 76.688C181.075 76.688 186.255 78.452 190.231 81.98C194.263 85.452 196.279 90.492 196.279 97.1H185.359C184.743 93.796 183.651 91.304 182.083 89.624C180.515 87.944 178.051 87.104 174.691 87.104C170.771 87.104 167.859 88.336 165.955 90.8C164.611 92.536 163.827 95.504 163.603 99.704C163.491 101.048 163.435 102.868 163.435 105.164V110.372C163.435 116.812 164.331 121.208 166.123 123.56C167.971 125.912 170.827 127.088 174.691 127.088C178.611 127.088 181.299 126.024 182.755 123.896C184.267 121.712 185.247 118.352 185.695 113.816Z" fill="black"/>
<path d="M117.68 111.884V102.98H140.276V111.884H132.548C132.548 112.612 132.548 114.012 132.548 116.084C132.548 118.1 132.296 120.536 131.792 123.392C131.288 126.192 130.504 128.544 129.44 130.448C128.376 132.296 126.92 133.752 125.072 134.816C123.224 135.88 121.264 136.608 119.192 137C117.12 137.336 114.572 137.504 111.548 137.504C104.268 137.504 98.7799 136.02 95.0839 133.052C91.4439 130.028 89.6239 125.856 89.6239 120.536C89.6239 117.512 90.0999 114.796 91.0519 112.388C92.0599 109.98 93.9359 107.712 96.6799 105.584C93.4879 101.888 91.8919 97.324 91.8919 91.892C91.8919 86.46 93.5159 82.456 96.7639 79.88C100.068 77.248 104.884 75.932 111.212 75.932C117.596 75.932 122.412 77.472 125.66 80.552C128.908 83.632 130.532 88.42 130.532 94.916H119.528C119.528 91.388 118.94 89.036 117.764 87.86C116.644 86.628 114.572 86.012 111.548 86.012C108.524 86.012 106.368 86.712 105.08 88.112C103.792 89.456 103.148 90.688 103.148 91.808C103.148 95.112 103.848 98.024 105.248 100.544C107.544 99.536 109 98.92 109.616 98.696L111.632 108.02C108.44 109.364 105.92 110.932 104.072 112.724C102.28 114.46 101.384 116.728 101.384 119.528C101.384 122.272 102.14 124.288 103.652 125.576C105.22 126.808 107.908 127.424 111.716 127.424C115.58 127.424 118.184 126.332 119.528 124.148C120.872 121.908 121.6 117.82 121.712 111.884H117.68Z" fill="#AF1717"/>
</svg>
