<svg width="180" height="82" viewBox="0 0 180 82" fill="none" xmlns="http://www.w3.org/2000/svg">
<path d="M28.376 35H21.704V21.176H9.176V35H2.504V0.823999H9.176V15.272H21.704V0.823999H28.376V35ZM64.7394 16.328V18.92C64.7394 24.648 63.6514 28.808 61.4754 31.4C59.3314 33.992 55.8754 35.288 51.1074 35.288C46.3394 35.288 42.8834 33.992 40.7394 31.4C38.6274 28.808 37.5714 24.6 37.5714 18.776V16.28C37.5714 10.968 38.6434 7.016 40.7874 4.424C42.9634 1.832 46.3874 0.535997 51.0594 0.535997C55.7634 0.535997 59.2194 1.848 61.4274 4.472C63.6354 7.096 64.7394 11.048 64.7394 16.328ZM58.0674 18.776V17C58.0674 13.928 57.6834 11.48 56.9154 9.656C56.0194 7.544 54.0994 6.488 51.1554 6.488C48.1794 6.488 46.2434 7.544 45.3474 9.656C44.6114 11.384 44.2434 13.832 44.2434 17V18.776C44.2434 22.904 44.8194 25.688 45.9714 27.128C46.4194 27.736 47.0754 28.264 47.9394 28.712C48.8354 29.128 49.8914 29.336 51.1074 29.336C52.3554 29.336 53.4114 29.128 54.2754 28.712C55.1394 28.296 55.8114 27.784 56.2914 27.176C56.7714 26.568 57.1394 25.768 57.3954 24.776C57.8434 23.208 58.0674 21.208 58.0674 18.776ZM99.662 14.6L93.518 27.56C92.622 29.288 91.502 30.152 90.158 30.152C88.846 30.152 87.742 29.24 86.846 27.416L80.606 14.6V35H73.934V0.823999H80.51L90.158 20.552L99.758 0.823999H106.334V35H99.662V14.6ZM139.672 35H127.576C123.736 35 121.032 34.344 119.464 33.032C117.928 31.688 117.16 29.336 117.16 25.976V0.823999H139.672V6.776H123.832V14.792H134.92L134.44 20.744H123.832V25.496C123.832 26.84 124.136 27.768 124.744 28.28C125.352 28.792 126.456 29.048 128.056 29.048H139.672V35ZM20.264 67.752H26.456C26.456 72.104 25.368 75.448 23.192 77.784C21.016 80.12 17.944 81.288 13.976 81.288C5.24 81.288 0.872 76.152 0.872 65.88V63C0.872 54.904 3.112 49.832 7.592 47.784C9.352 46.952 11.48 46.536 13.976 46.536C17.624 46.536 20.584 47.544 22.856 49.56C25.16 51.544 26.312 54.424 26.312 58.2H20.072C19.72 56.312 19.096 54.888 18.2 53.928C17.304 52.968 15.896 52.488 13.976 52.488C11.736 52.488 10.072 53.192 8.984 54.6C8.216 55.592 7.768 57.288 7.64 59.688C7.576 60.456 7.544 61.496 7.544 62.808V65.784C7.544 69.464 8.056 71.976 9.08 73.32C10.136 74.664 11.768 75.336 13.976 75.336C16.216 75.336 17.752 74.728 18.584 73.512C19.448 72.264 20.008 70.344 20.264 67.752ZM58.0603 81H51.1003L49.1803 75.096H37.7083L35.8363 81H28.8763L39.8203 49.704C40.3003 48.616 40.8283 47.864 41.4043 47.448C42.0123 47.032 42.7483 46.824 43.6123 46.824C44.4763 46.824 45.1643 47.016 45.6763 47.4C46.2203 47.784 46.7003 48.552 47.1163 49.704L58.0603 81ZM47.6443 69.48L43.6123 55.944L39.3883 69.48H47.6443ZM88.6216 81H80.8936L74.2216 68.328H69.4216V81H62.7496V54.168C62.7496 51.608 63.3416 49.752 64.5256 48.6C65.7096 47.416 67.6936 46.824 70.4776 46.824H76.1416C79.5336 46.824 82.2216 47.864 84.2056 49.944C86.2216 51.992 87.2296 54.6 87.2296 57.768C87.2296 60.072 86.6216 62.072 85.4056 63.768C84.2216 65.432 82.7496 66.584 80.9896 67.224L88.6216 81ZM75.7096 62.76C77.1176 62.76 78.2696 62.28 79.1656 61.32C80.0936 60.328 80.5576 59.112 80.5576 57.672C80.5576 56.2 80.1096 55.016 79.2136 54.12C78.3496 53.224 77.1816 52.776 75.7096 52.776H72.3976C70.4136 52.776 69.4216 53.784 69.4216 55.8V62.76H75.7096ZM115.708 49.8C117.692 51.752 118.684 54.632 118.684 58.44C118.684 62.248 117.692 65.144 115.708 67.128C113.756 69.08 110.988 70.056 107.404 70.056H100.828V81H94.1559V46.824H107.404C110.988 46.824 113.756 47.816 115.708 49.8ZM112.012 58.44C112.012 54.664 110.364 52.776 107.068 52.776H100.828V64.056H107.068C108.668 64.056 109.884 63.624 110.716 62.76C111.58 61.896 112.012 60.456 112.012 58.44ZM146.809 81H134.713C130.873 81 128.169 80.344 126.601 79.032C125.065 77.688 124.297 75.336 124.297 71.976V46.824H146.809V52.776H130.969V60.792H142.057L141.577 66.744H130.969V71.496C130.969 72.84 131.273 73.768 131.881 74.28C132.489 74.792 133.593 75.048 135.193 75.048H146.809V81ZM175.583 52.776H166.415V81H159.743V52.776H150.623V46.824H175.583V52.776Z" fill="black"/>
<path d="M166.911 20.648V15.56H179.823V20.648H175.407C175.407 21.064 175.407 21.864 175.407 23.048C175.407 24.2 175.263 25.592 174.975 27.224C174.687 28.824 174.239 30.168 173.631 31.256C173.023 32.312 172.191 33.144 171.135 33.752C170.079 34.36 168.959 34.776 167.775 35C166.591 35.192 165.135 35.288 163.407 35.288C159.247 35.288 156.111 34.44 153.999 32.744C151.919 31.016 150.879 28.632 150.879 25.592C150.879 23.864 151.151 22.312 151.695 20.936C152.271 19.56 153.343 18.264 154.911 17.048C153.087 14.936 152.175 12.328 152.175 9.224C152.175 6.12 153.103 3.832 154.959 2.36C156.847 0.855998 159.599 0.103997 163.215 0.103997C166.863 0.103997 169.615 0.983997 171.471 2.744C173.327 4.504 174.255 7.24 174.255 10.952H167.967C167.967 8.936 167.631 7.592 166.959 6.92C166.319 6.216 165.135 5.864 163.407 5.864C161.679 5.864 160.447 6.264 159.711 7.064C158.975 7.832 158.607 8.536 158.607 9.176C158.607 11.064 159.007 12.728 159.807 14.168C161.119 13.592 161.951 13.24 162.303 13.112L163.455 18.44C161.631 19.208 160.191 20.104 159.135 21.128C158.111 22.12 157.599 23.416 157.599 25.016C157.599 26.584 158.031 27.736 158.895 28.472C159.791 29.176 161.327 29.528 163.503 29.528C165.711 29.528 167.199 28.904 167.967 27.656C168.735 26.376 169.151 24.04 169.215 20.648H166.911Z" fill="#AF1717"/>
</svg>
