<svg width="114" height="36" viewBox="0 0 114 36" fill="none" xmlns="http://www.w3.org/2000/svg">
<path d="M27.184 12.104C26.864 9.096 25.808 6.76 24.016 5.096C22.256 3.432 19.984 2.6 17.2 2.6C14.928 2.6 12.864 3.24 11.008 4.52C9.152 5.768 7.664 7.544 6.544 9.848C5.456 12.152 4.912 14.872 4.912 18.008C4.912 21.016 5.488 23.672 6.64 25.976C7.792 28.28 9.344 30.072 11.296 31.352C13.248 32.632 15.408 33.272 17.776 33.272C19.856 33.272 21.904 32.808 23.92 31.88C25.936 30.92 27.584 29.544 28.864 27.752L30.112 28.76C28.736 30.648 27.248 32.104 25.648 33.128C24.048 34.152 22.448 34.84 20.848 35.192C19.28 35.576 17.84 35.768 16.528 35.768C14.128 35.768 11.92 35.336 9.904 34.472C7.92 33.608 6.192 32.408 4.72 30.872C3.28 29.304 2.16 27.496 1.36 25.448C0.592 23.368 0.208 21.128 0.208 18.728C0.208 16.456 0.544 14.248 1.216 12.104C1.92 9.96 2.96 8.024 4.336 6.296C5.712 4.568 7.44 3.192 9.52 2.168C11.632 1.144 14.08 0.631999 16.864 0.631999C20.384 0.631999 23.616 1.608 26.56 3.56L26.32 0.967998H28.912V12.104H27.184ZM45.0025 2.984C43.8185 3.016 42.9865 3.288 42.5065 3.8C42.0585 4.312 41.8025 5 41.7385 5.864C41.7065 6.728 41.6905 7.736 41.6905 8.888V29.288C41.6905 30.984 41.6425 32.248 41.5465 33.08C42.1225 33.048 42.6985 33.016 43.2745 32.984C43.8505 32.952 44.4265 32.92 45.0025 32.888V35H34.2025V33.416C35.4185 33.352 36.2505 33.08 36.6985 32.6C37.1465 32.088 37.3865 31.4 37.4185 30.536C37.4825 29.64 37.5145 28.632 37.5145 27.512V6.776C37.5145 5.432 37.5625 4.28 37.6585 3.32C37.0825 3.352 36.5065 3.384 35.9305 3.416C35.3545 3.448 34.7785 3.48 34.2025 3.512V1.4H45.0025V2.984ZM50.2806 35V33.416C51.4966 33.352 52.3286 33.08 52.7766 32.6C53.2246 32.088 53.4646 31.4 53.4966 30.536C53.5606 29.64 53.5926 28.632 53.5926 27.512V6.776C53.5926 5.432 53.6406 4.28 53.7366 3.32C53.1606 3.352 52.5846 3.384 52.0086 3.416C51.4326 3.448 50.8566 3.48 50.2806 3.512V1.4C52.0726 1.368 53.8806 1.336 55.7046 1.304C57.5606 1.272 59.4166 1.288 61.2726 1.352C65.9126 1.416 69.2406 2.2 71.2566 3.704C73.3046 5.208 74.3286 7.288 74.3286 9.944C74.3606 11.192 74.1206 12.472 73.6086 13.784C73.1286 15.064 72.2326 16.216 70.9206 17.24C69.6406 18.264 67.7846 19.032 65.3526 19.544C65.9926 19.992 66.5526 20.568 67.0326 21.272C67.5126 21.976 68.0566 22.792 68.6646 23.72L71.9286 28.856C72.4726 29.72 73.0006 30.504 73.5126 31.208C74.0246 31.88 74.6166 32.424 75.2886 32.84C75.9606 33.224 76.7926 33.416 77.7846 33.416V35H71.7366C70.8086 34.168 70.0246 33.336 69.3846 32.504C68.7766 31.672 68.1366 30.728 67.4646 29.672L64.2486 24.536C63.8326 23.864 63.3526 23.096 62.8086 22.232C62.2966 21.336 61.7046 20.584 61.0326 19.976C60.5206 20.008 59.9766 20.024 59.4006 20.024C58.8566 20.024 58.3126 20.008 57.7686 19.976V29.288C57.7686 30.984 57.7206 32.248 57.6246 33.08C58.2006 33.048 58.7766 33.016 59.3526 32.984C59.9286 32.952 60.5046 32.92 61.0806 32.888V35H50.2806ZM60.7446 18.2C62.5046 18.136 64.0406 17.848 65.3526 17.336C66.6966 16.824 67.7526 16.008 68.5206 14.888C69.2886 13.768 69.6726 12.296 69.6726 10.472C69.6726 8.04 68.9686 6.216 67.5606 5C66.1846 3.784 64.0246 3.176 61.0806 3.176C59.8966 3.176 59.0646 3.416 58.5846 3.896C58.1366 4.376 57.8806 5.048 57.8166 5.912C57.7846 6.744 57.7686 7.736 57.7686 8.888V18.104C58.2806 18.136 58.7606 18.168 59.2086 18.2C59.6886 18.232 60.2006 18.232 60.7446 18.2ZM97.0773 35.768C94.0373 35.768 91.4293 35.256 89.2533 34.232C87.0773 33.208 85.3013 31.848 83.9253 30.152C82.5813 28.424 81.5893 26.52 80.9492 24.44C80.3093 22.36 79.9893 20.28 79.9893 18.2C79.9893 16.184 80.3253 14.152 80.9973 12.104C81.6693 10.024 82.6933 8.12 84.0693 6.392C85.4773 4.664 87.2213 3.272 89.3013 2.216C91.4133 1.16 93.8773 0.631999 96.6933 0.631999C99.6373 0.631999 102.181 1.16 104.325 2.216C106.469 3.272 108.229 4.68 109.605 6.44C111.013 8.168 112.053 10.056 112.725 12.104C113.429 14.152 113.781 16.184 113.781 18.2C113.781 20.184 113.445 22.216 112.773 24.296C112.101 26.344 111.061 28.248 109.653 30.008C108.277 31.736 106.549 33.128 104.469 34.184C102.389 35.24 99.9253 35.768 97.0773 35.768ZM97.1733 33.8C99.1573 33.8 100.885 33.384 102.357 32.552C103.829 31.688 105.045 30.552 106.005 29.144C106.997 27.704 107.733 26.12 108.213 24.392C108.725 22.632 108.981 20.872 108.981 19.112C108.981 17.128 108.709 15.16 108.165 13.208C107.621 11.256 106.821 9.48 105.765 7.88C104.709 6.28 103.397 5 101.829 4.04C100.293 3.048 98.5333 2.552 96.5493 2.552C94.5653 2.552 92.8213 2.984 91.3173 3.848C89.8453 4.712 88.6133 5.864 87.6213 7.304C86.6613 8.712 85.9253 10.296 85.4133 12.056C84.9333 13.784 84.6933 15.544 84.6933 17.336C84.6933 19.096 84.9333 20.936 85.4133 22.856C85.9253 24.776 86.6933 26.568 87.7173 28.232C88.7413 29.896 90.0373 31.24 91.6053 32.264C93.1733 33.288 95.0293 33.8 97.1733 33.8Z" fill="black"/>
</svg>
